<?xml version="1.0" encoding="UTF-8"?>
<svg id="Layer_1" data-name="Layer 1" xmlns="http://www.w3.org/2000/svg" xmlns:xlink="http://www.w3.org/1999/xlink" viewBox="0 0 809.79 817.4">
  <defs>
    <style>
      .cls-1 {
        fill: url(#radial-gradient);
        stroke: #ff8c00;
        stroke-miterlimit: 10;
      }
    </style>
    <radialGradient id="radial-gradient" cx="404.9" cy="408.7" fx="404.9" fy="408.7" r="406.3" gradientUnits="userSpaceOnUse">
      <stop offset="0" stop-color="#ffa100"/>
      <stop offset="1" stop-color="#ff5e00"/>
    </radialGradient>
  </defs>
  <path class="cls-1" d="m180.3,75.1c2.59-55.17,83.36-83.47,126.63-49.79,72.68,56.56,97.22,56.44,154.41,2.38,65.66-62.06,144.04-5.29,150.99,45.28,8.44,61.42,22,100,77.46,100.41,99.21.74,140.54,77.59,93.97,143.1-33.86,47.63-53.43,83.82-11.21,125.86,47.72,47.53,61.21,143.97-35.34,172.41s-102.21,13.54-102.59,108.62c-.37,93.2-111.34,98.48-156.03,53.45-36.92-37.2-102.14-25.14-125.86,5.17-46.55,59.48-149.5,40.23-156.03-37.07-5.17-61.21-10.34-118.97-97.41-112.93-97.21,6.74-112.93-100-72.41-148.28,36.31-43.26,58.21-64.92,10.34-118.97-53.54-60.46-54.76-147.68,38.46-166.46,98.14-19.77,101.11-47.78,104.64-123.2Z"/>
</svg>