<?xml version="1.0" encoding="utf-8"?>
<!-- Generator: Adobe Illustrator 28.0.0, SVG Export Plug-In . SVG Version: 6.00 Build 0)  -->
<svg version="1.1" id="Layer_1" xmlns="http://www.w3.org/2000/svg" xmlns:xlink="http://www.w3.org/1999/xlink" x="0px" y="0px"
	 viewBox="0 0 2500 2493" style="enable-background:new 0 0 2500 2493;" xml:space="preserve">
<style type="text/css">
	.st0{fill-rule:evenodd;clip-rule:evenodd;fill:#1CE1BD;}
	.st1{fill-rule:evenodd;clip-rule:evenodd;fill:#FB5C84;}
	.st2{fill-rule:evenodd;clip-rule:evenodd;fill:#0587E1;}
</style>
<g>
	<path class="st0" d="M1196.1,50.9c-23.2,10.4-46.4,20.8-69.5,31.3c-16.7,7.7-59.6,27-102.2,46.1c-32.6,14.6-246.7,112-274.2,124.8
		c-14.1,6.6-259.9,118-337.8,153.2c-28.1,12.7-52.4,24.1-53.9,25.3c-4.2,3.4-6.9,360.6-4.7,614.3c1.4,156.8,2.6,209.8,4.7,207.2
		c1.5-1.9,38.1-19.5,81.3-39c43.2-19.5,89-40.4,101.8-46.4c12.8-6,23.6-10.9,24.1-10.9c0.5,0,12.8-5.6,27.4-12.5
		c14.6-6.9,27-12.5,27.6-12.5c1,0,21.2-9.3,63-28.9c12.8-6,23.7-10.9,24.2-10.9s9.1-3.8,19.1-8.4c28.9-13.5,49.6-23,63-29
		c6.9-3.1,38.3-17.3,69.8-31.7s68.6-31.2,82.3-37.4c15.3-6.9,30.5-13.9,45.7-21c11.4-5.3,21.2-9.7,21.6-9.7
		c0.4,0,11.8-5.2,25.3-11.5c13.5-6.3,41.4-19.1,61.9-28.4c20.6-9.3,47.5-21.7,59.8-27.4c46.3-21.7,94.4-40.3,101.4-39.3
		c5,0.7,6.2,0.2,4.5-1.9c-3.3-4,37.7-26.1,103.5-56c6.9-3.1,27-12.3,44.9-20.5c17.8-8.2,35.8-16.3,39.9-18.2
		c26.5-11.9,37-16.6,53.6-24.4c10.3-4.8,56.3-25.7,102.2-46.6s92.9-42.3,104.3-47.7c11.4-5.4,21.2-9.8,21.7-9.8
		c0.5,0,10.2-4.4,21.6-9.7c11.4-5.3,64.5-29.6,117.9-53.9c53.5-24.3,106.6-48.5,118-53.9c11.4-5.3,21.2-9.7,21.6-9.7
		c0.4,0,9-3.8,19.1-8.5c10.1-4.7,35.1-16.3,55.7-25.7c50.7-23.2,54.1-25.1,53.1-30.1c-1-5.2-27.2-18.4-116.7-58.8
		c-37.7-17-76.4-34.5-86-38.9s-34.3-15.6-54.8-24.9c-20.6-9.3-43.6-19.7-51.1-23.2c-71.7-32.6-143.5-65.1-215.3-97.6L1510.9,141
		c-193.6-87.6-248.5-112.4-253.7-114.2C1255,26,1228.2,36.6,1196.1,50.9"/>
	<path class="st1" d="M2143.7,1256.5c-2.3,3.7-28.7,16.7-58.5,28.7c-21.5,8.7-154.3,68.6-219.4,99c-13.3,6.1-26.5,12.2-39.9,18.1
		c-13,5.8-57.3,26-98.5,44.8c-80.6,36.8-161.2,73.6-241.8,110.3c-91.9,41.8-183.2,83.8-202.9,93.2c-19.7,9.4-37,17.2-38.4,17.2
		c-1.4,0-4.3,1.6-6.5,3.6c-4.7,4.3-35,18.2-152.3,70c-48.7,21.5-107.6,47.8-130.9,58.5c-36.1,16.5-72.3,33-108.4,49.4
		c-43.2,19.6-86.5,39.4-129.6,59.2c-72.4,33.3-209.5,95.5-266.8,121.1c-77.9,34.9-90.4,42.6-82.2,50.7c2,2,45.8,22.9,97.2,46.3
		c34.5,15.7,69,31.5,103.5,47.3c5.5,2.6,22.9,10.5,38.6,17.6c15.8,7.1,36,16.3,44.9,20.4c100.4,46,171.7,78.5,225.6,102.9
		c35.7,16.1,72.7,32.9,82.3,37.4c9.6,4.5,22.5,10.4,28.7,13.2c30.3,13.7,170,76.8,182,82.3c7.5,3.4,28.1,12.8,45.6,20.9
		c37.8,17.3,37.8,17.3,64.4,4.9c11.4-5.3,57.3-26.2,101.8-46.4l104.7-47.4c13-5.9,41.6-18.8,63.6-28.7
		c73.9-33.2,276.5-125.1,297.5-134.8c11.4-5.3,21.2-9.7,21.6-9.7c0.8,0,21.2-9.3,54.8-24.9c13.3-6.1,26.6-12.2,39.9-18.1
		c42.9-19.3,85.7-38.8,128.4-58.4c11.2-5.1,22.4-10.1,33.7-15c11-4.8,22.1-10.7,24.7-13.2c4.9-4.7,7.9-802.4,3-817
		C2152.1,1253.8,2146.4,1252.1,2143.7,1256.5"/>
	<path class="st2" d="M1211.4,863.5c-20.6,8.6-52,22.5-69.8,30.8c-17.8,8.3-43.6,20.2-57.3,26.3c-13.7,6.2-36,16.4-49.5,22.7
		c-13.5,6.3-24.9,11.5-25.3,11.5c-0.4,0-10.1,4.4-21.6,9.7c-11.5,5.3-32,14.8-45.7,21c-13.7,6.2-50.7,23-82.3,37.4
		c-31.5,14.4-62.9,28.6-69.8,31.7c-13.4,6-34.1,15.5-63,29c-10,4.6-18.6,8.4-19.1,8.4c-0.5,0-11.5,4.9-24.2,10.9
		c-41.8,19.7-62,28.9-63,28.9c-0.5,0-13,5.6-27.6,12.5c-14.6,6.9-27,12.5-27.6,12.5c-0.6,0-9.2,3.9-19.1,8.7
		c-9.9,4.8-56.2,25.9-102.7,47c-46.6,21.1-85,39.5-85.5,40.8c-0.8,2.5,29.9,17.4,99.1,48.1c25,11.1,106.6,48.1,120.9,54.8
		c10.1,4.7,134.5,61.2,162,73.5c8.2,3.7,19.7,8.9,25.6,11.5c17.4,7.9,34.9,15.8,52.4,23.7c60.3,27.3,61.9,28,87.5,40
		c12.8,6,23.6,10.9,24.1,10.9c0.4,0,11.4,5,24.4,11c13,6.1,31.3,14.4,40.7,18.4c104.9,45.3,235.9,108.3,245.8,118.2c5,5,5,5,39-11.3
		c18.7-9,110.3-51,203.5-93.5s203.2-92.6,244.3-111.5c41.1-18.8,85.4-39,98.5-44.8c13.3-6,26.6-12,39.9-18.1
		c62.8-29.4,193.6-88.3,219.4-98.9c33.9-13.9,57.8-26.1,59-30c0.4-1.4-11.3-8.1-26-14.9c-14.7-6.8-41.4-19.3-59.2-27.7
		c-16.2-7.7-32.4-15.3-48.6-22.9c-8.9-4.1-34.2-15.9-56.1-26.1c-57.3-26.7-65.6-30.6-82.3-38.1c-8.2-3.7-39.1-17.7-68.6-31.1
		c-29.5-13.4-60.3-27.4-68.6-31.1c-8.7-3.9-17.5-7.8-26.2-11.8c-44-20.1-88.1-40.1-132.1-60c-71.1-32.2-142.1-64.4-213.1-96.7
		C1242.7,839.7,1259.8,843.2,1211.4,863.5"/>
</g>
</svg>
